<svg width="600" height="500" viewBox="0 0 600 500" fill="none" xmlns="http://www.w3.org/2000/svg">
<path d="M22.908 374.66C26.508 374.44 33.492 371.19 33.504 371.19C33.516 371.19 29.532 367.99 29.244 367.81C25.968 365.81 18.216 363.46 14.496 365.67C13.8895 366.05 13.386 366.533 13.0185 367.087C12.651 367.64 12.4277 368.252 12.3632 368.883C12.2986 369.513 12.3943 370.148 12.6439 370.745C12.8936 371.342 13.2916 371.889 13.812 372.35C15.936 374.38 19.872 374.84 22.908 374.66Z" fill="#263238"/>
<path d="M36.192 390.71C39.432 389.76 44.796 385.45 45.216 385.1C48.1686 387.666 51.3236 390.065 54.66 392.28C56.592 393.57 58.584 394.83 60.66 396.07C59.628 395.62 58.716 395.22 58.584 395.18C54.78 393.94 46.584 393.41 43.668 396.36C43.1921 396.859 42.849 397.437 42.6614 398.056C42.4738 398.674 42.4461 399.318 42.58 399.946C42.7139 400.574 43.0063 401.171 43.438 401.697C43.8697 402.224 44.4308 402.668 45.084 403C47.772 404.49 51.72 404.07 54.588 403.22C57.456 402.37 62.172 398.77 63.396 397.8C64.176 398.27 64.944 398.75 65.724 399.21C69.48 401.45 73.248 403.67 76.86 405.94C78.132 406.74 79.344 407.57 80.568 408.39C79.656 407.99 78.888 407.66 78.768 407.62C74.964 406.38 66.768 405.85 63.852 408.8C63.3884 409.302 63.0566 409.879 62.8784 410.494C62.7001 411.11 62.6794 411.75 62.8175 412.372C62.9556 412.995 63.2494 413.586 63.6799 414.108C64.1104 414.629 64.6678 415.07 65.316 415.4C68.004 416.88 71.952 416.46 74.82 415.62C77.688 414.78 81.948 411.51 83.4 410.37C84.6 411.24 85.8 412.11 87 413.01C87.756 413.63 88.536 414.19 89.256 414.85L91.428 416.77C92.748 418.02 94.128 419.31 95.376 420.57C96.264 421.44 97.08 422.27 97.908 423.12C96.708 422.31 94.152 420.77 93.936 420.66C90.336 418.96 82.38 417.39 78.984 419.95C78.4341 420.386 78.0006 420.914 77.7119 421.499C77.4232 422.083 77.2857 422.713 77.3083 423.345C77.3309 423.977 77.5133 424.598 77.8433 425.168C78.1734 425.737 78.6439 426.242 79.224 426.65C81.624 428.45 85.596 428.54 88.584 428.07C91.884 427.54 97.752 424.12 98.484 423.69C99.84 425.09 101.16 426.47 102.372 427.78C105.648 431.3 108.372 434.43 110.472 436.96L113.16 435.78C110.928 433.22 108.024 430 104.496 426.38C103.116 424.95 101.604 423.45 100.044 421.92C101.538 420.461 102.924 418.929 104.196 417.33C107.448 418.33 114.132 418.14 114.996 418.12C115.212 419.92 115.392 421.66 115.536 423.32C115.92 427.63 116.112 431.41 116.22 434.44L119.136 433.15C118.956 430.31 118.68 426.93 118.236 423.15C118.032 421.32 117.768 419.38 117.468 417.38C118.308 417.18 125.208 415.5 127.752 413.68C130.08 412.03 132.48 409.39 132.288 406.68C132.268 406.047 132.088 405.425 131.76 404.854C131.433 404.283 130.964 403.776 130.386 403.366C129.808 402.955 129.132 402.651 128.403 402.473C127.674 402.294 126.909 402.246 126.156 402.33C121.656 402.94 118.092 409.13 117.48 412.49C117.48 412.69 117.336 414.88 117.3 416.26C117.18 415.45 117.06 414.66 116.928 413.82C116.652 412.16 116.328 410.51 115.992 408.74C115.792 407.893 115.588 407.033 115.38 406.16C115.2 405.29 114.876 404.4 114.624 403.51C114 401.45 113.232 399.4 112.416 397.34C114.156 397.15 120.324 396.34 122.928 395.03C125.532 393.72 128.376 391.38 128.676 388.71C128.77 388.082 128.705 387.445 128.485 386.839C128.265 386.233 127.894 385.673 127.398 385.194C126.901 384.715 126.289 384.328 125.602 384.059C124.915 383.789 124.167 383.643 123.408 383.63C118.848 383.63 114.204 389.34 112.98 392.63C112.908 392.84 112.344 395.25 112.068 396.58C111.564 395.34 111.072 394.11 110.508 392.88C108.9 389.32 107.124 385.76 105.384 382.2L103.812 378.93C104.436 378.86 111.792 378.07 114.708 376.57C117.3 375.23 120.156 372.92 120.444 370.25C120.557 369.617 120.506 368.97 120.296 368.354C120.085 367.738 119.72 367.167 119.224 366.678C118.728 366.189 118.112 365.793 117.418 365.518C116.725 365.242 115.968 365.093 115.2 365.08C110.628 365.08 105.984 370.79 104.772 374.03C104.676 374.28 103.884 377.75 103.728 378.64C102.528 376.24 101.46 373.83 100.476 371.43C99.1297 368.185 98.0354 364.872 97.2 361.51C97.488 361.51 105.18 360.68 108.168 359.14C110.748 357.8 113.604 355.49 113.904 352.82C114 352.193 113.937 351.555 113.718 350.95C113.499 350.344 113.13 349.783 112.634 349.304C112.139 348.825 111.528 348.438 110.841 348.169C110.154 347.899 109.407 347.753 108.648 347.74C104.076 347.74 99.432 353.45 98.22 356.69C98.124 356.95 97.26 360.69 97.164 361.37C97.164 361.17 97.044 360.98 96.996 360.78C96.2696 357.387 95.9042 353.947 95.904 350.5C95.904 348.6 95.976 346.78 96.12 345.01C97.572 345.01 104.196 344.81 107.076 343.67C109.956 342.53 112.956 340.54 113.616 337.91C113.792 337.295 113.812 336.656 113.673 336.034C113.534 335.412 113.24 334.822 112.811 334.301C112.381 333.78 111.825 333.339 111.178 333.008C110.531 332.678 109.808 332.464 109.056 332.38C104.508 332 99.144 337.21 97.5 340.33C97.416 340.5 96.732 342.33 96.3 343.62C96.384 342.83 96.444 342 96.54 341.24C96.888 338.37 97.428 335.77 97.92 333.46C98.208 332.15 98.508 330.98 98.796 329.88C100.212 329.23 105.84 326.58 107.724 324.5C109.608 322.42 111.228 319.5 110.34 316.88C110.158 316.263 109.821 315.685 109.352 315.183C108.882 314.682 108.291 314.269 107.617 313.972C106.943 313.674 106.201 313.499 105.44 313.457C104.678 313.416 103.915 313.509 103.2 313.73C98.952 315.13 97.08 321.82 97.344 325.21C97.344 325.51 98.364 330.06 98.436 330.02H98.52C98.22 331.07 97.908 332.2 97.596 333.45C97.044 335.75 96.396 338.35 96.012 341.22C95.5102 344.307 95.2257 347.416 95.16 350.53C95.0678 354.021 95.3489 357.511 96 360.96C96 360.96 96 361.04 96 361.08C95.4 360.08 93.6 357.34 93.432 357.15C91.032 354.37 84.588 350.15 80.232 351.28C79.5148 351.486 78.8576 351.815 78.3028 352.246C77.7481 352.677 77.3082 353.2 77.0117 353.782C76.7153 354.364 76.5689 354.991 76.582 355.623C76.5952 356.255 76.7676 356.877 77.088 357.45C78.348 359.92 81.888 361.39 84.876 362.01C88.212 362.7 95.532 361.57 96.12 361.48C96.881 364.975 97.9233 368.422 99.24 371.8C99.996 373.8 100.824 375.74 101.64 377.7C101.088 376.85 100.584 376.1 100.5 376C98.1 373.22 91.656 369 87.3 370.13C86.5828 370.336 85.9256 370.665 85.3708 371.096C84.816 371.527 84.3762 372.05 84.0797 372.632C83.7833 373.214 83.6369 373.841 83.65 374.473C83.6632 375.105 83.8356 375.727 84.156 376.3C85.416 378.78 88.956 380.24 91.932 380.86C94.908 381.48 101.208 380.63 102.864 380.38C103.212 381.13 103.536 381.88 103.884 382.63C105.528 386.23 107.196 389.81 108.684 393.36C109.212 394.61 109.68 395.86 110.16 397.11C109.668 396.36 109.236 395.73 109.164 395.64C106.764 392.86 100.308 388.64 95.964 389.77C95.2458 389.975 94.5873 390.303 94.0312 390.733C93.4751 391.164 93.0339 391.687 92.7363 392.269C92.4387 392.851 92.2912 393.479 92.3036 394.111C92.3159 394.743 92.4878 395.367 92.808 395.94C94.08 398.41 97.608 399.88 100.596 400.5C103.584 401.12 109.26 400.34 111.228 400.06C111.672 401.35 112.116 402.64 112.428 403.91C112.644 404.78 112.932 405.61 113.1 406.49C113.268 407.37 113.46 408.23 113.64 409.08C113.904 410.74 114.204 412.45 114.42 414.08C114.576 415.21 114.708 416.29 114.84 417.37C114.324 416.12 113.268 413.69 113.148 413.49C111.442 410.87 108.964 408.654 105.948 407.05C105.77 406.752 105.561 406.468 105.324 406.2C104.888 405.682 104.327 405.246 103.676 404.92C103.024 404.595 102.298 404.387 101.545 404.311C100.791 404.234 100.026 404.291 99.3005 404.477C98.5747 404.663 97.904 404.974 97.332 405.39C93.972 407.97 95.112 414.77 96.816 417.86C96.924 418.04 98.28 419.91 99.216 421.08C98.568 420.46 98.016 419.85 97.284 419.22C95.964 417.96 94.596 416.73 93.144 415.41L90.924 413.53C90.204 412.9 89.34 412.3 88.524 411.67C86.64 410.25 84.648 408.88 82.608 407.55C83.928 406.55 88.608 403.1 89.808 400.78C91.008 398.46 91.932 395.24 90.408 392.87C90.0796 392.298 89.6098 391.79 89.0295 391.38C88.4492 390.97 87.7714 390.667 87.0406 390.49C86.3098 390.314 85.5425 390.268 84.7889 390.356C84.0354 390.444 83.3126 390.663 82.668 391C78.876 393.13 78.756 400 79.884 403.27C79.956 403.47 81.084 405.74 81.732 406.97C80.532 406.18 79.332 405.38 77.988 404.61C74.292 402.38 70.452 400.22 66.648 398.06L63.168 396.06C63.648 395.72 69.252 391.68 70.692 389.06C71.964 386.75 72.816 383.52 71.292 381.15C70.9555 380.589 70.4818 380.094 69.9014 379.695C69.321 379.296 68.6468 379.003 67.9222 378.834C67.1976 378.665 66.4387 378.625 65.6943 378.716C64.9498 378.806 64.2364 379.026 63.6 379.36C59.808 381.48 59.688 388.36 60.828 391.62C60.912 391.86 62.544 395.13 63 395.94C60.456 394.46 57.936 392.94 55.512 391.42C52.2367 389.336 49.1263 387.078 46.2 384.66C46.416 384.5 52.308 380.3 53.772 377.66C55.044 375.36 55.908 372.12 54.384 369.75C54.0477 369.183 53.5718 368.681 52.9875 368.277C52.4031 367.873 51.7233 367.576 50.9921 367.405C50.261 367.234 49.495 367.194 48.7438 367.286C47.9926 367.378 47.2731 367.601 46.632 367.94C42.84 370.07 42.72 376.94 43.86 380.2C43.944 380.46 45.708 383.97 46.08 384.58L45.552 384.17C42.6953 381.678 40.1129 378.977 37.836 376.1C36.552 374.52 35.436 372.96 34.38 371.42C35.58 370.73 40.98 367.53 42.624 365.26C44.268 362.99 45.468 359.95 44.268 357.46C44.0098 356.865 43.6041 356.321 43.0773 355.865C42.5505 355.409 41.9144 355.051 41.2104 354.813C40.5063 354.575 39.7501 354.464 38.991 354.486C38.2318 354.508 37.4866 354.662 36.804 354.94C32.76 356.71 31.74 363.53 32.436 366.88C32.436 367.06 33.096 368.88 33.636 370.19C33.18 369.49 32.688 368.77 32.268 368.09C30.66 365.54 29.376 363.09 28.26 360.98C27.648 359.75 27.06 358.63 26.628 357.58C27.372 356.4 30.312 351.58 30.504 349C30.696 346.42 30 343.17 27.6 341.42C27.0417 340.991 26.3812 340.665 25.6617 340.463C24.9421 340.26 24.1795 340.186 23.4235 340.246C22.6674 340.305 21.9348 340.497 21.2733 340.807C20.6118 341.118 20.0363 341.542 19.584 342.05C16.968 345.17 19.836 351.61 22.308 354.32C22.524 354.56 26.364 357.89 26.4 357.83V357.76C26.844 358.76 27.336 359.87 27.888 361.05C28.956 363.22 30.18 365.67 31.716 368.26C33.3505 371.067 35.1816 373.792 37.2 376.42C39.4322 379.372 41.9741 382.153 44.796 384.73L44.904 384.82C43.704 384.26 40.428 382.82 40.104 382.72C36.3 381.48 28.104 380.95 25.2 383.9C24.736 384.4 24.4037 384.976 24.2247 385.59C24.0456 386.205 24.0239 386.843 24.1609 387.465C24.2979 388.087 24.5905 388.678 25.0197 389.199C25.449 389.72 26.0051 390.16 26.652 390.49C29.376 392 33.312 391.56 36.192 390.71Z" fill="#263238"/>
<path d="M95.52 344.46C95.604 344.46 94.32 339.96 94.2 339.68C92.82 336.48 87.888 330.98 83.316 331.11C82.5593 331.152 81.8215 331.325 81.1502 331.619C80.4789 331.913 79.889 332.321 79.4186 332.817C78.9481 333.312 78.6077 333.885 78.4192 334.497C78.2306 335.109 78.1982 335.747 78.324 336.37C78.768 339.04 81.732 341.24 84.396 342.48C87.516 343.94 95.508 344.46 95.52 344.46Z" fill="#263238"/>
<path d="M575.076 374.66C571.476 374.44 564.492 371.19 564.492 371.19C564.492 371.19 568.464 367.99 568.74 367.81C572.016 365.81 579.78 363.46 583.5 365.67C584.106 366.051 584.608 366.534 584.975 367.088C585.341 367.642 585.563 368.254 585.627 368.885C585.69 369.515 585.593 370.15 585.343 370.747C585.092 371.344 584.693 371.89 584.172 372.35C582 374.38 578.112 374.84 575.076 374.66Z" fill="#263238"/>
<path d="M561.804 390.71C558.564 389.76 553.2 385.45 552.768 385.1C549.818 387.669 546.663 390.067 543.324 392.28C541.392 393.57 539.4 394.83 537.384 396.07C538.404 395.62 539.328 395.22 539.46 395.18C543.264 393.94 551.46 393.41 554.364 396.36C554.827 396.861 555.159 397.437 555.337 398.052C555.515 398.667 555.536 399.306 555.398 399.928C555.26 400.549 554.966 401.14 554.535 401.661C554.105 402.182 553.548 402.621 552.9 402.95C550.212 404.44 546.276 404.02 543.396 403.17C540.516 402.32 535.812 398.72 534.6 397.75L532.26 399.16C528.504 401.4 524.748 403.62 521.136 405.89C519.864 406.69 518.64 407.52 517.416 408.34C518.328 407.94 519.096 407.61 519.228 407.57C523.02 406.33 531.228 405.8 534.132 408.75C534.596 409.252 534.927 409.829 535.106 410.445C535.284 411.06 535.305 411.7 535.167 412.322C535.028 412.945 534.735 413.536 534.304 414.058C533.874 414.58 533.316 415.02 532.668 415.35C529.98 416.83 526.032 416.41 523.164 415.57C520.296 414.73 516.036 411.46 514.584 410.32C513.384 411.19 512.184 412.06 510.984 412.96C510.216 413.58 509.436 414.14 508.716 414.8C507.996 415.46 507.264 416.08 506.556 416.72C505.224 417.97 503.856 419.26 502.596 420.52C501.72 421.39 500.892 422.22 500.064 423.07C501.324 422.26 503.82 420.72 504.048 420.61C507.576 418.91 515.604 417.34 518.988 419.9C519.538 420.336 519.971 420.864 520.26 421.449C520.549 422.034 520.686 422.663 520.664 423.295C520.641 423.927 520.459 424.548 520.129 425.118C519.799 425.687 519.328 426.192 518.748 426.6C516.348 428.4 512.388 428.49 509.388 428.02C506.1 427.49 500.232 424.07 499.5 423.64C498.132 425.04 496.824 426.42 495.6 427.73C492.336 431.25 489.6 434.38 487.5 436.91L484.8 435.73C487.032 433.17 489.948 429.95 493.464 426.33C494.844 424.9 496.356 423.4 497.928 421.87C496.433 420.41 495.042 418.877 493.764 417.28C490.512 418.28 483.828 418.09 482.964 418.07C482.76 419.87 482.568 421.61 482.424 423.27C482.04 427.58 481.848 431.36 481.752 434.39L478.824 433.1C479.004 430.26 479.292 426.88 479.724 423.1C479.94 421.27 480.204 419.33 480.492 417.33C479.652 417.13 472.764 415.45 470.208 413.63C467.892 411.98 465.492 409.34 465.684 406.63C465.703 405.998 465.881 405.376 466.207 404.805C466.533 404.234 467.001 403.727 467.578 403.316C468.156 402.906 468.83 402.601 469.559 402.423C470.287 402.244 471.052 402.196 471.804 402.28C476.316 402.89 479.868 409.08 480.48 412.44C480.48 412.64 480.624 414.83 480.66 416.21C480.792 415.4 480.9 414.61 481.044 413.77C481.308 412.11 481.632 410.46 481.98 408.69C482.172 407.84 482.376 406.98 482.58 406.11C482.784 405.24 483.084 404.35 483.336 403.46C483.972 401.4 484.728 399.35 485.544 397.29C483.804 397.1 477.636 396.29 475.032 394.98C472.428 393.67 469.584 391.33 469.296 388.66C469.2 388.033 469.263 387.395 469.482 386.79C469.701 386.184 470.07 385.623 470.566 385.144C471.061 384.665 471.672 384.278 472.359 384.009C473.046 383.739 473.793 383.593 474.552 383.58C479.124 383.58 483.768 389.29 484.98 392.58C485.064 392.79 485.616 395.2 485.892 396.53C486.396 395.29 486.9 394.06 487.452 392.83C489.072 389.27 490.836 385.71 492.576 382.15C493.116 381.06 493.632 379.97 494.148 378.88C493.536 378.81 486.168 378.02 483.252 376.52C480.672 375.18 477.816 372.87 477.516 370.2C477.42 369.573 477.483 368.935 477.702 368.33C477.921 367.724 478.29 367.163 478.786 366.684C479.281 366.205 479.892 365.818 480.579 365.549C481.266 365.279 482.013 365.133 482.772 365.12C487.344 365.12 491.988 370.83 493.212 374.07C493.296 374.32 494.1 377.79 494.244 378.68C495.444 376.28 496.512 373.87 497.508 371.47C498.859 368.226 499.957 364.912 500.796 361.55C500.508 361.55 492.828 360.72 489.84 359.18C487.248 357.84 484.392 355.53 484.092 352.86C483.998 352.232 484.063 351.595 484.283 350.989C484.503 350.383 484.874 349.823 485.37 349.344C485.867 348.865 486.479 348.478 487.166 348.209C487.853 347.94 488.601 347.794 489.36 347.78C493.932 347.78 498.564 353.49 499.788 356.73C499.884 356.99 500.736 360.73 500.832 361.41C500.832 361.21 500.964 361.02 501 360.82C501.732 357.428 502.098 353.987 502.092 350.54C502.092 348.64 502.02 346.82 501.876 345.05C500.424 345.05 493.8 344.85 490.932 343.71C488.064 342.57 485.04 340.58 484.392 337.95C484.214 337.335 484.193 336.696 484.331 336.073C484.469 335.451 484.762 334.86 485.193 334.338C485.623 333.817 486.18 333.376 486.827 333.046C487.475 332.715 488.199 332.502 488.952 332.42C493.5 332.04 498.864 337.25 500.496 340.37C500.592 340.54 501.264 342.37 501.696 343.66C501.612 342.87 501.552 342.04 501.456 341.28C501.108 338.41 500.58 335.81 500.076 333.5C499.788 332.19 499.488 331.02 499.2 329.92C497.796 329.27 492.168 326.62 490.284 324.54C488.4 322.46 486.78 319.54 487.656 316.92C487.839 316.307 488.175 315.732 488.642 315.233C489.109 314.735 489.696 314.324 490.366 314.027C491.036 313.73 491.773 313.553 492.53 313.509C493.287 313.465 494.047 313.554 494.76 313.77C499.008 315.17 500.88 321.86 500.616 325.25C500.616 325.55 499.596 330.1 499.524 330.06H499.44C499.74 331.11 500.064 332.24 500.376 333.49C500.928 335.79 501.576 338.39 501.96 341.26C502.458 344.347 502.738 347.456 502.8 350.57C502.896 354.061 502.619 357.551 501.972 361V361.12C502.572 360.12 504.372 357.38 504.54 357.19C506.94 354.41 513.384 350.19 517.74 351.32C518.458 351.525 519.117 351.853 519.673 352.284C520.228 352.714 520.669 353.238 520.966 353.82C521.262 354.402 521.408 355.03 521.394 355.662C521.38 356.295 521.206 356.918 520.884 357.49C519.624 359.96 516.084 361.43 513.108 362.05C509.772 362.74 502.44 361.61 501.852 361.52C501.091 365.015 500.049 368.462 498.732 371.84C497.976 373.84 497.148 375.78 496.332 377.74C496.884 376.89 497.388 376.14 497.472 376.04C499.872 373.26 506.328 369.04 510.672 370.17C511.39 370.375 512.049 370.703 512.605 371.134C513.161 371.564 513.602 372.087 513.9 372.669C514.197 373.251 514.345 373.879 514.332 374.511C514.32 375.144 514.148 375.767 513.828 376.34C512.556 378.82 509.028 380.28 506.04 380.9C503.052 381.52 496.764 380.67 495.108 380.42L494.1 382.67C492.444 386.27 490.776 389.85 489.3 393.4C488.772 394.65 488.304 395.9 487.836 397.15C488.328 396.4 488.748 395.77 488.82 395.68C491.22 392.9 497.676 388.68 502.02 389.81C502.737 390.016 503.394 390.345 503.949 390.776C504.504 391.207 504.944 391.73 505.24 392.312C505.537 392.894 505.683 393.521 505.67 394.153C505.657 394.785 505.484 395.407 505.164 395.98C503.892 398.45 500.364 399.92 497.376 400.54C494.388 401.16 488.712 400.38 486.744 400.1C486.312 401.39 485.868 402.68 485.544 403.95C485.328 404.82 485.04 405.65 484.884 406.53C484.728 407.41 484.524 408.27 484.344 409.12C484.068 410.78 483.78 412.49 483.564 414.12C483.396 415.25 483.264 416.33 483.132 417.41C483.648 416.16 484.716 413.73 484.824 413.53C486.507 410.878 488.977 408.63 492 407C492.169 406.698 492.378 406.413 492.624 406.15C493.058 405.632 493.619 405.196 494.269 404.871C494.919 404.545 495.644 404.338 496.397 404.261C497.15 404.185 497.914 404.241 498.638 404.427C499.363 404.613 500.033 404.924 500.604 405.34C503.964 407.92 502.836 414.72 501.12 417.81C501.012 417.99 499.656 419.86 498.72 421.03C499.368 420.41 499.992 419.8 500.664 419.17C501.984 417.91 503.34 416.68 504.804 415.36L507.012 413.48C507.744 412.85 508.608 412.25 509.412 411.62C511.296 410.2 513.288 408.83 515.34 407.5C514.02 406.5 509.34 403.05 508.14 400.73C506.94 398.41 506.004 395.19 507.528 392.82C507.863 392.252 508.338 391.749 508.922 391.344C509.506 390.939 510.186 390.641 510.917 390.47C511.648 390.298 512.415 390.256 513.166 390.348C513.918 390.439 514.638 390.662 515.28 391C519.072 393.13 519.18 400 518.052 403.27C517.98 403.47 516.852 405.74 516.204 406.97C517.404 406.18 518.664 405.38 519.948 404.61C523.656 402.38 527.484 400.22 531.3 398.06L534.768 396.06C534.3 395.72 528.684 391.68 527.244 389.06C525.972 386.75 525.12 383.52 526.644 381.15C526.979 380.582 527.454 380.079 528.038 379.674C528.622 379.269 529.303 378.971 530.034 378.801C530.766 378.63 531.533 378.59 532.284 378.683C533.036 378.776 533.755 379 534.396 379.34C538.176 381.46 538.296 388.34 537.168 391.6C537.084 391.84 535.452 395.11 534.984 395.92C537.54 394.44 540.06 392.92 542.472 391.4C545.75 389.319 548.86 387.061 551.784 384.64C551.568 384.48 545.688 380.28 544.212 377.64C542.94 375.34 542.088 372.1 543.612 369.73C543.947 369.163 544.422 368.662 545.005 368.258C545.588 367.854 546.267 367.557 546.997 367.386C547.728 367.215 548.493 367.174 549.243 367.267C549.993 367.359 550.712 367.581 551.352 367.92C555.144 370.05 555.264 376.92 554.124 380.18C554.04 380.44 552.288 383.95 551.916 384.56L552.444 384.15C555.293 381.655 557.872 378.955 560.148 376.08C561.432 374.5 562.548 372.94 563.604 371.4C562.404 370.71 557.004 367.51 555.372 365.24C553.74 362.97 552.528 359.93 553.728 357.44C553.986 356.845 554.392 356.302 554.919 355.845C555.445 355.389 556.082 355.031 556.786 354.793C557.49 354.555 558.246 354.444 559.005 354.466C559.764 354.488 560.509 354.643 561.192 354.92C565.236 356.69 566.256 363.51 565.56 366.86C565.56 367.04 564.888 368.86 564.36 370.17C564.816 369.47 565.308 368.75 565.74 368.07C567.348 365.52 568.62 363.07 569.736 360.96C570.36 359.73 570.936 358.61 571.38 357.56C570.624 356.38 567.696 351.56 567.492 348.98C567.288 346.4 567.912 343.17 570.348 341.42C570.906 340.991 571.567 340.665 572.286 340.463C573.006 340.26 573.768 340.187 574.525 340.246C575.281 340.305 576.013 340.497 576.675 340.808C577.336 341.119 577.912 341.542 578.364 342.05C580.98 345.17 578.112 351.61 575.652 354.32C575.436 354.56 571.584 357.89 571.548 357.83V357.76C571.116 358.76 570.624 359.87 570.06 361.05C569.004 363.22 567.78 365.67 566.232 368.26C564.605 371.067 562.782 373.792 560.772 376.42C558.548 379.377 556.005 382.158 553.176 384.73L553.068 384.82C554.268 384.26 557.544 382.82 557.868 382.72C561.66 381.48 569.868 380.95 572.772 383.9C573.235 384.401 573.567 384.977 573.745 385.592C573.923 386.207 573.944 386.846 573.806 387.468C573.668 388.089 573.374 388.68 572.943 389.201C572.513 389.722 571.956 390.161 571.308 390.49C568.62 392 564.672 391.56 561.804 390.71Z" fill="#263238"/>
<path d="M502.476 344.46C502.392 344.46 503.676 339.96 503.784 339.68C505.164 336.48 510.108 330.98 514.668 331.11C515.425 331.15 516.164 331.323 516.836 331.616C517.509 331.909 518.099 332.317 518.57 332.813C519.041 333.31 519.381 333.882 519.569 334.495C519.757 335.108 519.788 335.747 519.66 336.37C519.228 339.04 516.252 341.24 513.6 342.48C510.48 343.94 502.476 344.46 502.476 344.46Z" fill="#263238"/>
<path d="M110.676 200.6L111.672 201.15" stroke="#263238" stroke-miterlimit="10"/>
<path d="M113.688 202.24L297.564 301.87" stroke="#263238" stroke-miterlimit="10" stroke-dasharray="2 2"/>
<path d="M298.572 302.42L299.568 302.96L298.92 302.13" stroke="#263238" stroke-miterlimit="10"/>
<path d="M297.624 300.46L139.896 98.3599" stroke="#263238" stroke-miterlimit="10" stroke-dasharray="1.98 1.98"/>
<path d="M139.236 97.5299L138.588 96.6899" stroke="#263238" stroke-miterlimit="10"/>
<path d="M488.472 200.6L487.476 201.15" stroke="#263238" stroke-miterlimit="10"/>
<path d="M485.46 202.24L301.584 301.87" stroke="#263238" stroke-miterlimit="10" stroke-dasharray="2 2"/>
<path d="M300.576 302.42L299.568 302.96L300.228 302.13" stroke="#263238" stroke-miterlimit="10"/>
<path d="M301.524 300.46L459.252 98.3599" stroke="#263238" stroke-miterlimit="10" stroke-dasharray="1.98 1.98"/>
<path d="M459.9 97.5299L460.56 96.6899" stroke="#263238" stroke-miterlimit="10"/>
<path d="M299.568 65.6699V66.6699" stroke="#263238" stroke-miterlimit="10"/>
<path d="M299.568 68.6797V300.96" stroke="#263238" stroke-miterlimit="10" stroke-dasharray="2.01 2.01"/>
<path d="M299.568 301.96V302.96" stroke="#263238" stroke-miterlimit="10"/>
<path d="M301.812 91.8999C322.191 91.8999 338.712 78.1327 338.712 61.1499C338.712 44.1671 322.191 30.3999 301.812 30.3999C281.433 30.3999 264.912 44.1671 264.912 61.1499C264.912 78.1327 281.433 91.8999 301.812 91.8999Z" fill="#263238" stroke="#263238" stroke-width="2" stroke-miterlimit="10"/>
<path d="M301.812 61.1497L332.868 44.5497C328.28 38.5968 321.373 34.1407 313.308 31.9297L301.812 61.1497Z" fill="#92E3A9" stroke="#263238" stroke-miterlimit="10"/>
<path d="M301.812 61.1498L319.2 88.2598C323.686 86.2559 327.625 83.5003 330.771 80.1664C333.917 76.8324 336.202 72.9922 337.481 68.887C338.76 64.7818 339.006 60.5005 338.204 56.3123C337.402 52.124 335.569 48.1192 332.82 44.5498L301.812 61.1498Z" fill="white" stroke="#263238" stroke-miterlimit="10"/>
<path d="M480.495 118.232C494.901 106.227 494.901 86.7638 480.495 74.7591C466.089 62.7544 442.733 62.7544 428.327 74.7591C413.922 86.7638 413.922 106.227 428.327 118.232C442.733 130.237 466.089 130.237 480.495 118.232Z" stroke="#263238" stroke-miterlimit="10"/>
<path d="M454.404 123.15C472.066 123.15 486.384 111.218 486.384 96.5001C486.384 81.7817 472.066 69.8501 454.404 69.8501C436.742 69.8501 422.424 81.7817 422.424 96.5001C422.424 111.218 436.742 123.15 454.404 123.15Z" fill="#263238"/>
<path d="M472.8 96.4998L441.828 81.5898V111.4L472.8 96.4998Z" fill="white"/>
<path d="M544.705 204.25C549.658 187.02 536.911 169.707 516.235 165.58C495.559 161.453 474.784 172.075 469.831 189.305C464.879 206.535 477.625 223.848 498.301 227.975C518.977 232.102 539.753 221.48 544.705 204.25Z" fill="#263238"/>
<path d="M534.035 202.122C537.559 189.814 528.443 177.457 513.674 174.52C498.905 171.584 484.076 179.18 480.552 191.488C477.028 203.795 486.144 216.153 500.913 219.089C515.682 222.026 530.511 214.429 534.035 202.122Z" fill="white"/>
<path d="M523.296 199.949C525.401 192.561 519.921 185.149 511.055 183.394C502.189 181.639 493.294 186.206 491.189 193.595C489.083 200.983 494.563 208.395 503.429 210.15C512.296 211.905 521.19 207.338 523.296 199.949Z" fill="#263238"/>
<path d="M515.941 198.517C517.072 194.54 514.12 190.552 509.348 189.61C504.575 188.668 499.79 191.128 498.659 195.105C497.529 199.081 500.481 203.069 505.253 204.011C510.025 204.954 514.81 202.494 515.941 198.517Z" fill="white"/>
<path d="M556.32 181.4L551.424 179.81L553.56 178.94C553.684 178.893 553.795 178.826 553.887 178.743C553.979 178.659 554.05 178.562 554.096 178.455C554.143 178.349 554.163 178.236 554.156 178.122C554.148 178.009 554.114 177.899 554.055 177.797C553.996 177.695 553.913 177.604 553.811 177.529C553.709 177.454 553.59 177.397 553.461 177.361C553.332 177.325 553.196 177.311 553.061 177.319C552.925 177.328 552.793 177.358 552.672 177.41L551.124 178.04L553.584 173.6L544.452 177L543.12 181.27L506.82 196C506.699 196.049 506.591 196.118 506.502 196.201C506.413 196.285 506.345 196.383 506.302 196.489C506.258 196.595 506.24 196.707 506.249 196.819C506.258 196.93 506.293 197.04 506.352 197.14C506.408 197.241 506.489 197.332 506.588 197.407C506.687 197.482 506.804 197.539 506.931 197.575C507.057 197.612 507.191 197.626 507.325 197.619C507.458 197.611 507.589 197.581 507.708 197.53L544.128 182.75L548.1 184.62L556.32 181.4Z" fill="#263238"/>
<path d="M141.804 127.23C163.058 127.23 180.288 112.872 180.288 95.1598C180.288 77.4481 163.058 63.0898 141.804 63.0898C120.55 63.0898 103.32 77.4481 103.32 95.1598C103.32 112.872 120.55 127.23 141.804 127.23Z" fill="white" stroke="#263238" stroke-width="2" stroke-miterlimit="10"/>
<path d="M141.804 127.23C157.219 127.23 169.716 112.872 169.716 95.1598C169.716 77.4481 157.219 63.0898 141.804 63.0898C126.389 63.0898 113.892 77.4481 113.892 95.1598C113.892 112.872 126.389 127.23 141.804 127.23Z" fill="white" stroke="#263238" stroke-miterlimit="10"/>
<path d="M141.804 127.23C148.365 127.23 153.684 112.872 153.684 95.1598C153.684 77.4481 148.365 63.0898 141.804 63.0898C135.243 63.0898 129.924 77.4481 129.924 95.1598C129.924 112.872 135.243 127.23 141.804 127.23Z" fill="white" stroke="#263238" stroke-miterlimit="10"/>
<path d="M121.416 68.0698H162.876" stroke="#263238" stroke-miterlimit="10"/>
<path d="M107.472 80.6401H176.076" stroke="#263238" stroke-miterlimit="10"/>
<path d="M103.512 93.1997H180.216" stroke="#263238" stroke-miterlimit="10"/>
<path d="M105.204 105.77H177.96" stroke="#263238" stroke-miterlimit="10"/>
<path d="M115.572 118.33H168.72" stroke="#263238" stroke-miterlimit="10"/>
<path d="M91.428 228.86C112.682 228.86 129.912 214.501 129.912 196.79C129.912 179.078 112.682 164.72 91.428 164.72C70.1739 164.72 52.944 179.078 52.944 196.79C52.944 214.501 70.1739 228.86 91.428 228.86Z" fill="#263238" stroke="#263238" stroke-width="2" stroke-miterlimit="10"/>
<path d="M115.812 181.63H64.776V215.66H115.812V181.63Z" fill="white" stroke="#263238" stroke-width="2" stroke-miterlimit="10"/>
<path d="M119.004 181.63H61.584V195.45H119.004V181.63Z" fill="white" stroke="#263238" stroke-width="2" stroke-miterlimit="10"/>
<path d="M90.24 181.29C90.24 181.29 78.24 169.58 76.188 170.14C74.136 170.7 68.832 178.5 71.844 179.34C74.856 180.18 90.24 181.29 90.24 181.29Z" fill="#92E3A9"/>
<path d="M90.348 181.29C90.348 181.29 102.348 169.58 104.4 170.14C106.452 170.7 111.768 178.5 108.756 179.34C105.744 180.18 90.348 181.29 90.348 181.29Z" fill="#92E3A9"/>
<path d="M93.924 205.55L90.312 200.32L86.568 205.55V182.13H93.924V205.55Z" fill="#92E3A9"/>
<path d="M108.468 285.14L299.436 195.57L495.084 285.14V414.99H110.82L108.468 285.14Z" fill="#263238" stroke="#263238" stroke-linecap="round" stroke-linejoin="round"/>
<path d="M444.72 219.73H158.856V431.59H444.72V219.73Z" fill="white" stroke="#263238" stroke-miterlimit="10"/>
<path d="M191.652 256.83H408.396" stroke="#263238" stroke-miterlimit="10"/>
<path d="M191.652 275.38H408.396" stroke="#263238" stroke-miterlimit="10"/>
<path d="M191.652 293.93H408.396" stroke="#263238" stroke-miterlimit="10"/>
<path d="M191.652 312.48H408.396" stroke="#263238" stroke-miterlimit="10"/>
<path d="M191.652 331.03H408.396" stroke="#263238" stroke-miterlimit="10"/>
<path d="M191.652 349.58H408.396" stroke="#263238" stroke-miterlimit="10"/>
<path d="M495.084 463.81H108.468V285.14L301.788 394.49L495.084 285.14V463.81Z" fill="#92E3A9" stroke="#263238" stroke-miterlimit="10"/>
<path d="M108.468 463.81L249.036 364.6" stroke="#263238" stroke-miterlimit="10"/>
<path d="M494.472 463.81L354.948 364.44" stroke="#263238" stroke-miterlimit="10"/>
<path d="M343.596 160.67C343.596 160.67 342.144 166.33 344.088 168.15C346.032 169.97 353.304 176.44 353.304 177.45C353.304 178.46 350.904 207.58 350.904 207.58L339.744 200.91L332.952 218.3C332.952 218.3 349.932 224.37 357.948 225.58C365.964 226.79 367.404 224.97 367.404 219.72C367.404 214.47 361.092 174.22 361.092 174.22C361.092 174.22 363.036 164.92 363.036 163.3C363.036 161.68 363.768 160.87 362.064 160.06C360.36 159.25 346.536 158.06 346.536 158.06C346.536 158.06 343.596 159.05 343.596 160.67Z" fill="white" stroke="#263238" stroke-linecap="round" stroke-linejoin="round"/>
<path d="M339.996 203.36L336.312 218.94L332.928 218.3L339.996 203.36Z" fill="#263238" stroke="#263238" stroke-linecap="round" stroke-linejoin="round"/>
<path d="M367.2 165.21L339.708 162.13V156.42C339.708 156.155 339.834 155.9 340.059 155.713C340.285 155.525 340.59 155.42 340.908 155.42C341.226 155.42 341.531 155.525 341.757 155.713C341.982 155.9 342.108 156.155 342.108 156.42V160.42L365.088 163L365.484 158.38C365.459 158.232 365.474 158.082 365.528 157.939C365.581 157.797 365.673 157.666 365.795 157.557C365.917 157.448 366.067 157.363 366.234 157.309C366.4 157.254 366.579 157.231 366.758 157.242C366.937 157.253 367.11 157.297 367.266 157.371C367.421 157.444 367.555 157.546 367.657 157.669C367.76 157.791 367.828 157.931 367.856 158.079C367.885 158.226 367.874 158.377 367.824 158.52L367.2 165.21Z" fill="#263238"/>
<path d="M346.032 163.3L361.068 164.51L362.04 160.06L346.512 158.04L346.032 163.3Z" fill="white" stroke="#263238" stroke-linecap="round" stroke-linejoin="round"/>
<path d="M343.356 163.91C343.356 163.91 343.356 158.85 344.088 158.45C344.82 158.05 355.248 158.65 355.248 159.86C355.248 161.07 355.248 161.68 354.048 161.68C352.848 161.68 350.448 161.88 350.448 161.88C350.448 161.88 356.028 166.13 354.324 169.97" fill="white"/>
<path d="M343.356 163.91C343.356 163.91 343.356 158.85 344.088 158.45C344.82 158.05 355.248 158.65 355.248 159.86C355.248 161.07 355.248 161.68 354.048 161.68C352.848 161.68 350.448 161.88 350.448 161.88C350.448 161.88 356.028 166.13 354.324 169.97" stroke="#263238" stroke-linecap="round" stroke-linejoin="round"/>
<path d="M350.88 207.58L349.908 216.48" stroke="#263238" stroke-linecap="round" stroke-linejoin="round"/>
<path d="M227.652 203.7C227.652 203.7 193.356 226 194.244 228.41C195.132 230.82 220.572 251.09 228.984 256.06C237.396 261.03 242.04 263.26 242.04 263.26L247.344 266.02C247.344 266.02 245.136 269.02 246.468 269.53C247.8 270.04 252.66 272.11 253.32 271C253.98 269.89 257.532 261.6 257.088 259.57C256.644 257.54 243.804 255.88 242.928 255.14C242.052 254.4 221.016 227.14 221.016 227.14L237.396 216.45L227.652 203.7Z" fill="white" stroke="#263238" stroke-linecap="round" stroke-linejoin="round"/>
<path d="M227.064 204.44L233.292 218.51L237.396 216.42L227.064 204.44Z" fill="#263238" stroke="#263238" stroke-linecap="round" stroke-linejoin="round"/>
<path d="M247.344 266C247.344 266 248.904 268.77 251.556 269" stroke="#263238" stroke-linecap="round" stroke-linejoin="round"/>
<path d="M221.016 227.11L216.588 220.66" stroke="#263238" stroke-linecap="round" stroke-linejoin="round"/>
<path d="M250.452 429.02L250.092 445.41L266.208 445.7L267.636 427.84L250.452 429.02Z" fill="white" stroke="#263238" stroke-linecap="round" stroke-linejoin="round"/>
<path d="M250.512 428.13V432.18L267.228 432.83L267.612 428.62L250.512 428.13Z" fill="#263238" stroke="#263238" stroke-linecap="round" stroke-linejoin="round"/>
<path d="M258.06 441.13C258.06 441.13 255.936 434.19 252.744 434.04C249.552 433.89 247.944 435.96 246.744 437.88C245.544 439.8 237.708 446.29 235.044 447.88C232.38 449.47 226.548 451.57 225.66 456.29C224.772 461.01 228.132 462.94 230.46 463.38C232.788 463.82 243.216 463.97 249.42 463.38C255.624 462.79 272.532 464.19 273.516 463.38C274.5 462.57 275.82 459.98 274.932 458.21C274.236 456.921 273.405 455.687 272.448 454.52C272.448 454.52 274.224 450.24 273.156 447.88C272.088 445.52 269.964 442.56 270.324 441.23C270.684 439.9 274.572 437.1 271.92 436.95C269.268 436.8 265.008 439.46 262.32 440.2C260.938 440.621 259.512 440.933 258.06 441.13Z" fill="#263238" stroke="#263238" stroke-linecap="round" stroke-linejoin="round"/>
<path d="M269.4 455.15C266.916 455.45 257.4 459.28 251.328 460.47C245.256 461.66 240 461.79 237.156 460.61C234.312 459.43 231.84 455.89 229.716 453.67C227.592 451.45 225.828 457.07 225.828 457.07L225.528 457.18C225.168 461.29 228.264 463 230.424 463.42C232.584 463.84 243.18 464.01 249.384 463.42C255.588 462.83 272.496 464.23 273.48 463.42C274.464 462.61 275.784 460.02 274.896 458.25C274.2 456.961 273.369 455.727 272.412 454.56C271.356 454.41 271.884 454.86 269.4 455.15Z" fill="white" stroke="#263238" stroke-linecap="round" stroke-linejoin="round"/>
<path d="M243.6 442C243.6 442 248.4 441.12 254.4 446L251.22 448.21C251.22 448.21 245.016 444.21 241.116 444.21L243.6 442Z" fill="white" stroke="#263238" stroke-linecap="round" stroke-linejoin="round"/>
<path d="M239.112 445C239.112 445 243.912 444.11 249.912 449L246.732 451.22C246.732 451.22 240.528 447.22 236.628 447.22L239.112 445Z" fill="white" stroke="#263238" stroke-linecap="round" stroke-linejoin="round"/>
<path d="M253.104 444.52L258.06 441.13" stroke="#263238" stroke-linecap="round" stroke-linejoin="round"/>
<path d="M246.732 451.17C246.732 451.17 247.932 453.38 245.844 454.71C243.756 456.04 229.716 453.82 229.896 452.2C230.076 450.58 236.628 447.2 236.628 447.2C240.29 447.924 243.731 449.276 246.732 451.17Z" fill="white" stroke="#263238" stroke-linecap="round" stroke-linejoin="round"/>
<path d="M352.104 429.02L352.452 445.41L336.336 445.7L334.92 427.84L352.104 429.02Z" fill="white" stroke="#263238" stroke-linecap="round" stroke-linejoin="round"/>
<path d="M335.232 430.88V433.31L352.332 433.15L352.14 429.59L334.848 429.43L335.232 430.88Z" fill="#263238" stroke="#263238" stroke-linecap="round" stroke-linejoin="round"/>
<path d="M344.484 441.13C344.484 441.13 346.608 434.19 349.8 434.04C352.992 433.89 354.6 435.96 355.8 437.88C357 439.8 364.836 446.29 367.488 447.88C370.14 449.47 375.996 451.57 376.872 456.29C377.748 461.01 374.4 462.94 372.072 463.38C369.744 463.82 359.316 463.97 353.112 463.38C346.908 462.79 330 464.19 329.028 463.38C328.056 462.57 326.724 459.98 327.6 458.21C328.296 456.921 329.127 455.687 330.084 454.52C330.084 454.52 328.308 450.24 329.376 447.88C330.444 445.52 332.568 442.56 332.208 441.23C331.848 439.9 327.96 437.1 330.612 436.95C333.264 436.8 337.524 439.46 340.212 440.2C341.597 440.623 343.028 440.934 344.484 441.13Z" fill="#263238" stroke="#263238" stroke-linecap="round" stroke-linejoin="round"/>
<path d="M333.144 455.15C335.628 455.45 345.144 459.28 351.216 460.47C357.288 461.66 362.556 461.79 365.388 460.61C368.22 459.43 370.704 455.89 372.828 453.67C374.952 451.45 376.728 457.07 376.728 457.07L377.016 457.18C377.376 461.29 374.28 463 372.12 463.42C369.96 463.84 359.364 464.01 353.16 463.42C346.956 462.83 330.048 464.23 329.076 463.42C328.104 462.61 326.772 460.02 327.648 458.25C328.344 456.961 329.175 455.727 330.132 454.56C331.2 454.41 330.66 454.86 333.144 455.15Z" fill="white" stroke="#263238" stroke-linecap="round" stroke-linejoin="round"/>
<path d="M359.004 442C359.004 442 354.204 441.12 348.204 446L351.396 448.21C351.396 448.21 357.588 444.21 361.488 444.21L359.004 442Z" fill="white" stroke="#263238" stroke-linecap="round" stroke-linejoin="round"/>
<path d="M363.432 445C363.432 445 358.632 444.11 352.632 449L355.824 451.22C355.824 451.22 362.016 447.22 365.916 447.22L363.432 445Z" fill="white" stroke="#263238" stroke-linecap="round" stroke-linejoin="round"/>
<path d="M349.44 444.52L344.484 441.13" stroke="#263238" stroke-linecap="round" stroke-linejoin="round"/>
<path d="M355.824 451.17C355.824 451.17 354.624 453.38 356.7 454.71C358.776 456.04 372.828 453.82 372.648 452.2C372.468 450.58 365.916 447.2 365.916 447.2C362.257 447.923 358.82 449.275 355.824 451.17Z" fill="white" stroke="#263238" stroke-linecap="round" stroke-linejoin="round"/>
<path d="M257.856 256C257.856 256 248.484 287.89 244.968 314.91C241.452 341.93 235.98 430.44 235.98 430.44H278.94C278.94 430.44 291.828 340.61 293.784 324.67C295.74 308.73 295.728 298.67 295.728 298.67L319.944 430.48H371.1C371.1 430.48 351.576 346.84 343.764 308.48C335.952 270.12 325.02 255.11 325.02 255.11L257.856 256Z" fill="#B0B0B0" stroke="#263238" stroke-linecap="round" stroke-linejoin="round"/>
<path d="M294.564 258.31C294.192 259.24 284.016 271.98 287.136 272.95C290.256 273.92 296.124 273.95 296.124 271.33V260.91C296.124 260.91 296.904 275.56 300.42 274.91C303.936 274.26 308.616 274.91 307.452 271.65C306.288 268.39 297.3 258 297.3 258C297.3 258 295.728 255.38 294.564 258.31Z" fill="#B0B0B0" stroke="#263238" stroke-linecap="round" stroke-linejoin="round"/>
<path d="M296.172 259.38C296.172 259.38 305.028 269.86 304.176 270.81C303.324 271.76 302.172 272.71 301.32 271.29C300.468 269.87 296.172 259.38 296.172 259.38Z" stroke="#263238" stroke-miterlimit="10"/>
<path d="M295.884 258.19C295.884 258.19 289.308 269.86 290.172 270.33C290.48 270.489 290.829 270.584 291.19 270.608C291.552 270.631 291.914 270.583 292.249 270.467C292.583 270.35 292.879 270.169 293.113 269.939C293.346 269.708 293.511 269.434 293.592 269.14C294.168 267.48 295.884 258.19 295.884 258.19Z" stroke="#263238" stroke-miterlimit="10"/>
<path d="M322.572 291.45C322.932 293.1 323.244 294.66 323.46 296.06" stroke="#263238" stroke-linecap="round" stroke-linejoin="round"/>
<path d="M313.308 259.29C313.308 259.29 318.18 273.79 321.312 286.1" stroke="#263238" stroke-linecap="round" stroke-linejoin="round"/>
<path d="M309.792 259.29C309.792 259.29 312.912 277.51 314.472 282.39" stroke="#263238" stroke-linecap="round" stroke-linejoin="round"/>
<path d="M267.288 284.52C267.12 285.78 266.976 286.93 266.832 287.92" stroke="#263238" stroke-linecap="round" stroke-linejoin="round"/>
<path d="M270.348 259.29C270.348 259.29 269.052 270.42 267.948 279.62" stroke="#263238" stroke-linecap="round" stroke-linejoin="round"/>
<path d="M267.228 259.94L265.656 275.56" stroke="#263238" stroke-linecap="round" stroke-linejoin="round"/>
<path d="M294.588 126.5C294.588 126.5 309.144 127.71 305.748 133.98C302.352 140.25 298.956 141.46 298.224 141.46C297.492 141.46 291.672 133.98 291.672 133.98L294.588 126.5Z" fill="#263238" stroke="#263238" stroke-linecap="round" stroke-linejoin="round"/>
<path d="M292.884 132.36C292.884 132.36 298.464 134.99 300.168 139.84C301.872 144.69 306.228 146.11 307.452 145.91C308.676 145.71 310.356 148.74 308.904 150.76L307.452 152.76C307.452 152.76 308.652 166.51 307.2 168.33C305.748 170.15 296.772 169.14 296.772 169.14C296.772 169.14 294.828 175.61 296.532 179.66C298.236 183.71 303.324 185.72 305.268 185.72C307.212 185.72 311.328 183.72 316.908 186.13C322.488 188.54 341.172 200.28 341.172 200.28L331.2 223L320.52 218.35L328.044 256.97L255.252 258.39C255.252 258.39 255.984 230.89 254.052 225.83C252.702 222.476 250.995 219.23 248.952 216.13L239.736 222.19L226.872 203.59C226.872 203.59 245.796 187.82 253.272 186.4C260.748 184.98 269.772 186.81 272.688 183.77C275.604 180.73 273.168 166.38 273.168 166.38C273.168 166.38 266.136 164.38 262.008 154.05C257.88 143.72 271.956 133.05 271.956 133.05C271.956 133.05 278.328 127.51 292.884 132.36Z" fill="white" stroke="#263238" stroke-linecap="round" stroke-linejoin="round"/>
<path d="M296.772 169.16L290.208 168.24L295.476 173.29L296.772 169.16Z" fill="#263238" stroke="#263238" stroke-linecap="round" stroke-linejoin="round"/>
<path d="M293.688 143.31C293.688 143.31 293.688 139.47 297.816 139.47" stroke="#263238" stroke-width="2" stroke-linecap="round" stroke-linejoin="round"/>
<path d="M304.536 157.23L296.04 153.79C296.04 153.79 295.32 161.07 298.44 160.87C301.56 160.67 304.536 157.23 304.536 157.23Z" fill="#263238" stroke="#263238" stroke-linecap="round" stroke-linejoin="round"/>
<path d="M296.22 147.06C296.22 147.06 298.956 144.59 301.236 146.68" stroke="#263238" stroke-linecap="round" stroke-linejoin="round"/>
<path d="M295.98 156.1L303.612 158.17C303.94 157.871 304.249 157.557 304.536 157.23L296.04 153.8C296.04 153.8 295.944 154.83 295.98 156.1Z" fill="white" stroke="#263238" stroke-linecap="round" stroke-linejoin="round"/>
<path d="M248.484 141.06C248.484 141.06 243.144 131.96 235.62 132.97C228.096 133.98 222.276 140.85 224.7 150.56C224.7 150.56 225.9 153.19 226.884 155.41C226.884 155.41 217.428 152.99 212.328 158.24C207.228 163.49 211.128 168.96 216.936 171.59C222.744 174.22 226.164 174.02 226.164 174.02C226.164 174.02 213.3 177.25 217.908 181.3C222.516 185.35 236.592 182.71 233.676 179.3C230.76 175.89 228.588 176.3 228.588 176.3C228.588 176.3 240.228 172.66 239.016 170.03C237.804 167.4 231.984 165.38 231.984 165.38C231.984 165.38 243.144 168.62 249.216 165.58C255.288 162.54 249.936 149.58 249.936 149.58L248.484 141.06Z" fill="#263238" stroke="#263238" stroke-linecap="round" stroke-linejoin="round"/>
<path d="M297.252 122.05C297.252 122.05 299.196 127.71 295.8 132.56C292.404 137.41 285.12 145.71 284.148 155.01C283.176 164.31 286.332 175.84 288.276 179.68C290.22 183.52 285.876 184.33 282.696 184.13C279.516 183.93 278.328 182.31 278.328 178.67C278.328 175.03 277.356 168.56 277.356 168.56C277.356 168.56 264.984 167.56 259.164 164.71C253.344 161.86 244.848 152.18 248.484 141.06C252.12 129.94 261.828 126.7 267.684 124.68C273.54 122.66 281.52 122.86 287.1 121.85C292.68 120.84 297.012 119.62 297.252 122.05Z" fill="#263238" stroke="#263238" stroke-linecap="round" stroke-linejoin="round"/>
<path d="M279.6 150.36L277.416 157.64C277.416 157.64 272.808 155.82 272.076 152.58C271.344 149.34 276.876 147.73 280.812 150.58" fill="white"/>
<path d="M279.6 150.36L277.416 157.64C277.416 157.64 272.808 155.82 272.076 152.58C271.344 149.34 276.876 147.73 280.812 150.58" stroke="#263238" stroke-linecap="round" stroke-linejoin="round"/>
<path d="M350.4 161.88L347.244 162.09" stroke="#263238" stroke-linecap="round" stroke-linejoin="round"/>
<path d="M327.696 156.04L408.576 165.47L397.584 115.61L325.2 144.66L327.696 156.04Z" fill="#92E3A9" stroke="#263238" stroke-linecap="round" stroke-linejoin="round"/>
<path d="M325.195 144.662L313.178 146.493L315.664 157.825L327.681 155.994L325.195 144.662Z" fill="#92E3A9" stroke="#263238" stroke-linecap="round" stroke-linejoin="round"/>
<path d="M341.172 200.3C341.172 200.3 322.488 188.57 316.908 186.15C311.328 183.73 307.308 185.69 305.352 185.74C302.751 188.862 299.248 191.388 295.167 193.085C291.086 194.781 286.558 195.595 282 195.45C266.04 195.28 261.6 187.88 260.64 185.72C258.198 185.739 255.763 185.95 253.368 186.35C245.844 187.77 226.968 203.54 226.968 203.54L239.832 222.14L249.048 216.08C251.091 219.18 252.798 222.426 254.148 225.78C256.092 230.84 255.348 258.34 255.348 258.34L328.14 256.92L320.616 218.3L331.2 223L341.172 200.3Z" fill="#263238" stroke="#263238" stroke-linecap="round" stroke-linejoin="round"/>
<path d="M295.117 238.813C307.148 236.426 314.579 226.364 311.715 216.339C308.851 206.313 296.777 200.121 284.746 202.507C272.716 204.894 265.285 214.956 268.149 224.981C271.012 235.007 283.087 241.199 295.117 238.813Z" stroke="white" stroke-miterlimit="10"/>
<path d="M303.612 212.2H277.056L290.148 222.71L303.612 212.2Z" fill="#92E3A9"/>
<path d="M295.464 220.39L304.704 227.19V213.17L295.464 220.39Z" fill="#92E3A9"/>
<path d="M284.928 220.37L275.568 212.85V226.87L284.928 220.37Z" fill="#92E3A9"/>
<path d="M294.288 221.3L290.136 224.55L286.092 221.3L276.348 228.07H303.48L294.288 221.3Z" fill="#92E3A9"/>
<path d="M36.372 463.81H564.756" stroke="#263238" stroke-miterlimit="10"/>
</svg>
